<svg width="24" height="24" viewBox="0 0 24 24" fill="none" xmlns="http://www.w3.org/2000/svg">
<g clip-path="url(#clip0_3057_294)">
<path d="M12.001 0.133301C5.44087 0.133301 0.122192 5.45198 0.122192 12.0121C0.122192 17.9402 4.46552 22.8538 10.1453 23.7484V15.4466H7.12783V12.0121H10.1453V9.39495C10.1453 6.41545 11.919 4.77244 14.6312 4.77244C15.9309 4.77244 17.2924 5.0041 17.2924 5.0041V7.92539H15.7907C14.3176 7.92539 13.8567 8.84253 13.8567 9.78224V12.0097H17.1486L16.6223 15.4442H13.8567V23.746C19.5365 22.8562 23.8798 17.9414 23.8798 12.0121C23.8798 5.45198 18.5611 0.133301 12.001 0.133301Z" fill="#052838"/>
</g>
<defs>
<clipPath id="clip0_3057_294">
<rect width="24" height="24" fill="white"/>
</clipPath>
</defs>
</svg>
